# xmcd CD database file
#
# Track frame offsets:
#	150
#	13475
#	27060
#	41272
#	54847
#	67490
#	81045
#	96015
#	109920
#	123267
#	136107
#	149355
#	162160
#	175872
#	189310
#	203507
#	219142
#	232677
#	244715
#	256457
#	267952
#	279555
#	292660
#	304365
#	316555
#
# Disc length: 4378 seconds
#
# Revision: 1
# Processed by: cddbd v1.5.2PL0 Copyright (c) Steve Scherf et al.
# Submitted via: CDex 1.70beta2
#
DISCID=4f111819
DTITLE=Various Artist - Memphis Harp and Jug Blowers
DYEAR=1929
DGENRE=Blues
TTITLE0=Memphis Jug Band -- Memphis Jug Blues
TTITLE1=Jed Davenport -- I want it awful bad
TTITLE2=Mr. Devil Blues
TTITLE3=How Long How Long
TTITLE4=Cow Cow Blues
TTITLE5=Beale Street Breakdown
TTITLE6=You Ought to Move Out of Town
TTITLE7=The Dirty Dozen
TTITLE8=Jug Blues
TTITLE9=Save Me Some
TTITLE10=Piccolo Blues
TTITLE11=Sitting On Top of the World
TTITLE12=Talking About Yo-Yo
TTITLE13=Minnie Wallace -- The Cockeyed World
TTITLE14=Field Mouse Stomp
TTITLE15=Let's All Do That Thing
TTITLE16=Pick Them Up and Put Them Down
TTITLE17=Little Buddy Doyle -- Hard Scruffling Blues
TTITLE18=Grief Will Kill You
TTITLE19=Renewed Love Blues
TTITLE20=Bad In Mind Blues
TTITLE21=Three-Sixty-Nine Blues
TTITLE22=She's Got Good Dry Goods
TTITLE23=Lost Baby Blues
TTITLE24=Sweet Man Blues
EXTD=YEAR: 1929
EXTT0=
EXTT1=
EXTT2=
EXTT3=
EXTT4=
EXTT5=
EXTT6=
EXTT7=
EXTT8=
EXTT9=
EXTT10=
EXTT11=
EXTT12=
EXTT13=
EXTT14=
EXTT15=
EXTT16=
EXTT17=
EXTT18=
EXTT19=
EXTT20=
EXTT21=
EXTT22=
EXTT23=
EXTT24=
PLAYORDER=
